<mxfile host="65bd71144e">
    <diagram id="PCYlpp_mxA9zYA-M48Wo" name="Page-1">
        <mxGraphModel dx="1570" dy="847" grid="0" gridSize="10" guides="1" tooltips="1" connect="1" arrows="1" fold="1" page="0" pageScale="1" pageWidth="827" pageHeight="1169" math="0" shadow="0">
            <root>
                <mxCell id="0"/>
                <mxCell id="1" parent="0"/>
                <mxCell id="10" value="" style="edgeStyle=none;exitX=0.5;exitY=1;exitDx=0;exitDy=0;entryX=0.5;entryY=0;entryDx=0;entryDy=0;fontSize=16;" parent="1" source="3" target="4" edge="1">
                    <mxGeometry relative="1" as="geometry"/>
                </mxCell>
                <mxCell id="3" value="Начало" style="ellipse;fontSize=16;" parent="1" vertex="1">
                    <mxGeometry x="340" y="140" width="130" height="50" as="geometry"/>
                </mxCell>
                <mxCell id="11" value="" style="edgeStyle=none;exitX=0.5;exitY=1;exitDx=0;exitDy=0;entryX=0.5;entryY=0;entryDx=0;entryDy=0;fontSize=16;" parent="1" source="4" target="6" edge="1">
                    <mxGeometry relative="1" as="geometry"/>
                </mxCell>
                <mxCell id="4" value="Выбрать x1, x2, x3 ∊ [a, b]&#10;с исп. метода золотого сечения&#10;(примечание 1)" style="rounded=0;fontSize=16;" parent="1" vertex="1">
                    <mxGeometry x="275.75" y="220" width="258.5" height="60" as="geometry"/>
                </mxCell>
                <mxCell id="65" value="" style="edgeStyle=none;exitX=0.5;exitY=1;exitDx=0;exitDy=0;entryX=0.5;entryY=0;entryDx=0;entryDy=0;fontSize=14;" edge="1" parent="1" source="6" target="64">
                    <mxGeometry relative="1" as="geometry"/>
                </mxCell>
                <mxCell id="6" value="Найти x_ по формулам (**)&#10;f_ = f(x_)" style="rounded=0;fontSize=16;" parent="1" vertex="1">
                    <mxGeometry x="273" y="308" width="264" height="81" as="geometry"/>
                </mxCell>
                <mxCell id="68" value="" style="edgeStyle=orthogonalEdgeStyle;exitX=1;exitY=0.5;exitDx=0;exitDy=0;entryX=0.5;entryY=0;entryDx=0;entryDy=0;fontSize=14;rounded=0;" edge="1" parent="1" source="7" target="67">
                    <mxGeometry relative="1" as="geometry"/>
                </mxCell>
                <mxCell id="72" value="" style="edgeStyle=orthogonalEdgeStyle;rounded=0;exitX=0;exitY=0.5;exitDx=0;exitDy=0;entryX=0.5;entryY=0;entryDx=0;entryDy=0;fontSize=14;" edge="1" parent="1" source="7" target="70">
                    <mxGeometry relative="1" as="geometry"/>
                </mxCell>
                <mxCell id="7" value="i == 1" style="rhombus;fontSize=16;" parent="1" vertex="1">
                    <mxGeometry x="345" y="496" width="120" height="80" as="geometry"/>
                </mxCell>
                <mxCell id="43" value="" style="edgeStyle=none;exitX=0.5;exitY=1;exitDx=0;exitDy=0;entryX=0.5;entryY=0;entryDx=0;entryDy=0;fontSize=16;" parent="1" source="39" target="40" edge="1">
                    <mxGeometry relative="1" as="geometry"/>
                </mxCell>
                <mxCell id="39" value="x*, f*" style="shape=parallelogram;perimeter=parallelogramPerimeter;fixedSize=1;fontSize=16;" parent="1" vertex="1">
                    <mxGeometry x="498" y="804" width="152" height="60" as="geometry"/>
                </mxCell>
                <mxCell id="40" value="Конец" style="ellipse;fontSize=16;" parent="1" vertex="1">
                    <mxGeometry x="509" y="888" width="130" height="50" as="geometry"/>
                </mxCell>
                <mxCell id="66" value="" style="edgeStyle=none;exitX=0.5;exitY=1;exitDx=0;exitDy=0;entryX=0.5;entryY=0;entryDx=0;entryDy=0;fontSize=14;" edge="1" parent="1" source="64" target="7">
                    <mxGeometry relative="1" as="geometry"/>
                </mxCell>
                <mxCell id="64" value="i = 1" style="rounded=0;fontSize=16;" vertex="1" parent="1">
                    <mxGeometry x="339" y="416" width="132" height="59" as="geometry"/>
                </mxCell>
                <mxCell id="79" value="" style="edgeStyle=orthogonalEdgeStyle;rounded=0;exitX=0.5;exitY=1;exitDx=0;exitDy=0;entryX=0.5;entryY=0;entryDx=0;entryDy=0;fontSize=14;" edge="1" parent="1" source="67" target="78">
                    <mxGeometry relative="1" as="geometry"/>
                </mxCell>
                <mxCell id="82" value="" style="edgeStyle=orthogonalEdgeStyle;rounded=0;exitX=0;exitY=0.5;exitDx=0;exitDy=0;fontSize=14;" edge="1" parent="1" source="67">
                    <mxGeometry relative="1" as="geometry">
                        <mxPoint x="303.9047619047619" y="588.4285714285713" as="targetPoint"/>
                        <Array as="points">
                            <mxPoint x="502" y="649"/>
                            <mxPoint x="395" y="649"/>
                            <mxPoint x="395" y="588"/>
                        </Array>
                    </mxGeometry>
                </mxCell>
                <mxCell id="67" value="| x_' - x_| &lt;= e" style="rhombus;fontSize=16;" vertex="1" parent="1">
                    <mxGeometry x="501.5" y="601" width="145" height="80" as="geometry"/>
                </mxCell>
                <mxCell id="73" value="" style="edgeStyle=orthogonalEdgeStyle;rounded=0;exitX=0.5;exitY=1;exitDx=0;exitDy=0;entryX=0.5;entryY=0;entryDx=0;entryDy=0;fontSize=14;" edge="1" parent="1" source="70" target="71">
                    <mxGeometry relative="1" as="geometry"/>
                </mxCell>
                <mxCell id="70" value="i = i + 1" style="rounded=0;fontSize=16;" vertex="1" parent="1">
                    <mxGeometry x="231" y="608" width="132" height="59" as="geometry"/>
                </mxCell>
                <mxCell id="75" value="" style="edgeStyle=orthogonalEdgeStyle;rounded=0;exitX=0.5;exitY=1;exitDx=0;exitDy=0;entryX=0.5;entryY=0;entryDx=0;entryDy=0;fontSize=14;" edge="1" parent="1" source="71" target="74">
                    <mxGeometry relative="1" as="geometry"/>
                </mxCell>
                <mxCell id="71" value="x_' = x_" style="rounded=0;fontSize=16;" vertex="1" parent="1">
                    <mxGeometry x="231" y="697" width="132" height="59" as="geometry"/>
                </mxCell>
                <mxCell id="77" value="" style="edgeStyle=orthogonalEdgeStyle;rounded=0;exitX=0.5;exitY=1;exitDx=0;exitDy=0;entryX=0.5;entryY=0;entryDx=0;entryDy=0;fontSize=14;" edge="1" parent="1" source="74" target="76">
                    <mxGeometry relative="1" as="geometry"/>
                </mxCell>
                <mxCell id="74" value="Выбрать новые x1, x2, x3&#10;с исп. метода исключения отрезков&#10;(примечание 2)" style="rounded=0;fontSize=16;" vertex="1" parent="1">
                    <mxGeometry x="151.5" y="786" width="291" height="72" as="geometry"/>
                </mxCell>
                <mxCell id="83" value="" style="edgeStyle=orthogonalEdgeStyle;rounded=0;exitX=0.5;exitY=1;exitDx=0;exitDy=0;fontSize=14;" edge="1" parent="1" source="76">
                    <mxGeometry relative="1" as="geometry">
                        <mxPoint x="393.55172413793116" y="482.2068965517242" as="targetPoint"/>
                        <Array as="points">
                            <mxPoint x="297" y="950"/>
                            <mxPoint x="144" y="950"/>
                            <mxPoint x="144" y="482"/>
                        </Array>
                    </mxGeometry>
                </mxCell>
                <mxCell id="76" value="Найти x_ для новых x1, x2, x3&#10;по формулам (**)&#10;f_ = f(x_)" style="rounded=0;fontSize=16;" vertex="1" parent="1">
                    <mxGeometry x="159.5" y="881" width="275" height="59" as="geometry"/>
                </mxCell>
                <mxCell id="80" value="" style="edgeStyle=orthogonalEdgeStyle;rounded=0;exitX=0.5;exitY=1;exitDx=0;exitDy=0;entryX=0.5;entryY=0;entryDx=0;entryDy=0;fontSize=14;" edge="1" parent="1" source="78" target="39">
                    <mxGeometry relative="1" as="geometry"/>
                </mxCell>
                <mxCell id="78" value="x* = x_&#10;f* = f_" style="rounded=0;fontSize=16;" vertex="1" parent="1">
                    <mxGeometry x="508" y="705" width="132" height="59" as="geometry"/>
                </mxCell>
                <mxCell id="84" value="нет" style="text;align=center;verticalAlign=middle;resizable=0;points=[];autosize=1;strokeColor=none;fillColor=none;fontSize=14;" vertex="1" parent="1">
                    <mxGeometry x="476" y="504" width="39" height="29" as="geometry"/>
                </mxCell>
                <mxCell id="85" value="нет" style="text;align=center;verticalAlign=middle;resizable=0;points=[];autosize=1;strokeColor=none;fillColor=none;fontSize=14;" vertex="1" parent="1">
                    <mxGeometry x="459" y="615" width="39" height="29" as="geometry"/>
                </mxCell>
                <mxCell id="86" value="да" style="text;align=center;verticalAlign=middle;resizable=0;points=[];autosize=1;strokeColor=none;fillColor=none;fontSize=14;" vertex="1" parent="1">
                    <mxGeometry x="296" y="504" width="34" height="29" as="geometry"/>
                </mxCell>
                <mxCell id="87" value="да" style="text;align=center;verticalAlign=middle;resizable=0;points=[];autosize=1;strokeColor=none;fillColor=none;fontSize=14;" vertex="1" parent="1">
                    <mxGeometry x="585.5" y="676" width="34" height="29" as="geometry"/>
                </mxCell>
            </root>
        </mxGraphModel>
    </diagram>
</mxfile>